<svg width="24" height="24" viewBox="0 0 24 24" fill="none" xmlns="http://www.w3.org/2000/svg">
<path fill-rule="evenodd" clip-rule="evenodd" d="M19.122 9.79925C19.122 6.04413 15.9972 3 12.1426 3C8.28801 3 5.16323 6.04413 5.16323 9.79925L5.16381 11.2353C4.46811 11.6271 4 12.3598 4 13.1989C4 14.1712 4.62846 15.0005 5.51027 15.3221C6.42566 18.0374 9.36252 20.0704 12.1426 19.9981C13.0759 19.9739 13.7755 19.8294 14.2004 19.7115C14.4899 19.6312 14.6589 19.3518 14.6336 19.0526C14.5966 18.6154 14.1722 18.3163 13.743 18.407C13.2438 18.5124 12.6137 18.6215 12.1426 18.6215C8.93045 18.6215 6.90808 16.3281 6.90808 13.1989V10.9325C6.90808 10.3066 7.42888 9.79925 8.07131 9.79925H16.2139C16.8564 9.79925 17.3772 10.3066 17.3772 10.9325V13.1989L17.3718 13.4447C17.3449 14.0592 17.2175 14.6484 17.0052 15.197C16.4741 15.3335 15.781 15.4653 15.0855 15.4653C14.6405 15.4653 14.1898 15.4113 13.7794 15.3367C13.632 14.9451 13.2503 14.6012 12.7424 14.4556C11.9796 14.2369 11.2211 14.5482 11.0483 15.1511C10.8754 15.7539 11.3536 16.4199 12.1164 16.6386C12.6386 16.7884 13.1589 16.6896 13.4905 16.419C13.9593 16.5187 14.505 16.5985 15.0507 16.5985C16.4698 16.5985 17.889 16.0588 17.9563 16.0329L18.4888 16.0327C18.4911 16.0278 18.4934 16.023 18.4956 16.0182C19.344 15.9108 20 15.1865 20 14.3089V13.222C20 12.5775 19.6461 12.0156 19.122 11.7201V9.79925Z" fill="black"/>
</svg>
